# xmcd
#
# Track frame offsets:
#	150
#	23807
#	28265
#	48466
#	56813
#	71092
#	81834
#	85474
#	90742
#	114937
#	128425
#	154951
#	167426
#	194533
#	201689
#	213682
#	225435
#	233725
#	239786
#	257642
#	260093
#	274442
#
# Disc length: 3870 seconds
#
# Revision: 1
# Processed by: cddbd v1.5.1PL0 Copyright (c) Steve Scherf et al.
# Submitted via: CDex 1.50Beta5
#
DISCID=4b0f1c16
DTITLE=ドラマCD - ドラマCD 星のパイロット
DYEAR=1900
DGENRE=Unclassifiable
TTITLE0=強行着陸
TTITLE1=星のパイロット
TTITLE2=航空宇宙会社
TTITLE3=離陸
TTITLE4=宇宙のお仕事
TTITLE5=空中発射型宇宙機ダイナソア
TTITLE6=訓練開始
TTITLE7=パイロットの資格
TTITLE8=飛ぶ理由
TTITLE9=宇宙飛行シミュレーション
TTITLE10=疑惑
TTITLE11=ほしをめざすもの
TTITLE12=フライトシミュレーション51-L
TTITLE13=ライト・スタッフ
TTITLE14=カウント・ダウン
TTITLE15=船外活動(EVA)開始
TTITLE16=軌道上回収不能
TTITLE17=高加速大気圏突入
TTITLE18=最終手段
TTITLE19=船外活動(EVA)終了
TTITLE20=大気圏突入
TTITLE21=自分の場所
EXTD=
EXTT0=
EXTT1=
EXTT2=
EXTT3=
EXTT4=
EXTT5=
EXTT6=
EXTT7=
EXTT8=
EXTT9=
EXTT10=
EXTT11=
EXTT12=
EXTT13=
EXTT14=
EXTT15=
EXTT16=
EXTT17=
EXTT18=
EXTT19=
EXTT20=
EXTT21=
PLAYORDER=
